<?xml version="1.0" encoding="utf-8"?>
<!-- Generator: Adobe Illustrator 18.0.0, SVG Export Plug-In . SVG Version: 6.00 Build 0)  -->
<!DOCTYPE svg PUBLIC "-//W3C//DTD SVG 1.1 Tiny//EN" "http://www.w3.org/Graphics/SVG/1.1/DTD/svg11-tiny.dtd">
<svg version="1.1" baseProfile="tiny" id="Arrow_1_"
	 xmlns="http://www.w3.org/2000/svg" xmlns:xlink="http://www.w3.org/1999/xlink" x="0px" y="0px" width="500px" height="500px"
	 viewBox="0 0 500 500" overflow="visible" xml:space="preserve">
  <metadata>
    <?xpacket begin="﻿" id="W5M0MpCehiHzreSzNTczkc9d"?>
    <x:xmpmeta xmlns:x="adobe:ns:meta/" x:xmptk="Adobe XMP Core 5.6-c011 79.156380, 2014/06/19-23:40:37        ">
     <rdf:RDF xmlns:rdf="http://www.w3.org/1999/02/22-rdf-syntax-ns#">
      <rdf:Description rdf:about=""
        xmlns:xmpMM="http://ns.adobe.com/xap/1.0/mm/"
        xmlns:stEvt="http://ns.adobe.com/xap/1.0/sType/ResourceEvent#"
        xmlns:xmp="http://ns.adobe.com/xap/1.0/"
        xmlns:xmpRights="http://ns.adobe.com/xap/1.0/rights/"
        xmlns:dc="http://purl.org/dc/elements/1.1/"
       xmpMM:DocumentID="xmp.did:ec545c46036211797a85fe3e9579691d"
       xmpMM:OriginalDocumentID="xmp.did:ec545c46036211797a85fe3e9579691d"
       xmpMM:InstanceID="xmp.iid:ec545c46036211797a85fe3e9579691d"
       xmp:ModifyDate="2015-04-27T10:31:04+02:00"
       xmp:MetadataDate="2015-04-27T10:31:04+02:00"
       xmpRights:Marked="True"
       xmpRights:WebStatement="http://www.adobe.com/legal/general-terms.html">
       <xmpMM:History>
        <rdf:Seq>
         <rdf:li
          stEvt:action="saved"
          stEvt:instanceID="xmp.iid:ec545c46036211797a85fe3e9579691d"
          stEvt:when="2015-04-27T10:31:04+02:00"/>
        </rdf:Seq>
       </xmpMM:History>
       <xmpRights:UsageTerms>
        <rdf:Alt>
         <rdf:li xml:lang="x-default">This work is licensed under the Adobe General Terms of Use http://www.adobe.com/legal/general-terms.html.</rdf:li>
        </rdf:Alt>
       </xmpRights:UsageTerms>
       <dc:publisher>
        <rdf:Bag>
         <rdf:li>Adobe Systems Incorporated</rdf:li>
        </rdf:Bag>
       </dc:publisher>
      </rdf:Description>
     </rdf:RDF>
    </x:xmpmeta>
    <?xpacket end="r"?>
  </metadata>
<g id="_x34_00-list2.png">
	<g>
		<path d="M35.7,214.3C16,214.3,0,230.3,0,250s16,35.7,35.7,35.7s35.7-16,35.7-35.7S55.5,214.3,35.7,214.3z M35.7,357.1
			C16,357.1,0,373.1,0,392.9s16,35.7,35.7,35.7s35.7-16,35.7-35.7S55.5,357.1,35.7,357.1z M154.8,142.9h309.5
			c19.7,0,35.7-16,35.7-35.7s-16-35.7-35.7-35.7H154.8c-19.7,0-35.7,16-35.7,35.7S135,142.9,154.8,142.9z M464.3,357.1H154.8
			c-19.7,0-35.7,16-35.7,35.7s16,35.7,35.7,35.7h309.5c19.7,0,35.7-16,35.7-35.7S484,357.1,464.3,357.1z M35.7,71.4
			C16,71.4,0,87.4,0,107.1s16,35.7,35.7,35.7s35.7-16,35.7-35.7S55.5,71.4,35.7,71.4z M464.3,214.3H154.8c-19.7,0-35.7,16-35.7,35.7
			s16,35.7,35.7,35.7h309.5c19.7,0,35.7-16,35.7-35.7S484,214.3,464.3,214.3z"/>
	</g>
</g>
</svg>
