<?xml version="1.0" encoding="utf-8"?>
<!-- Generator: Adobe Illustrator 19.0.1, SVG Export Plug-In . SVG Version: 6.00 Build 0)  -->
<svg version="1.1" id="Layer_2" xmlns="http://www.w3.org/2000/svg" xmlns:xlink="http://www.w3.org/1999/xlink" x="0px" y="0px"
	 viewBox="0 0 612 612" style="enable-background:new 0 0 612 612;" xml:space="preserve">
<path d="M62.3,54.6h-3c-0.7,0-1.4-0.6-1.4-1.4v-7.4c0-0.8-0.6-1.4-1.4-1.4h-4.8c-0.8,0-1.4,0.6-1.4,1.4v7.4c0,0.7-0.6,1.4-1.4,1.4
	h-3.1c-0.8,0-1.3,1-0.8,1.6l8,9.6c0.5,0.6,1.5,0.6,2.1,0l8-9.6C63.6,55.5,63.2,54.6,62.3,54.6z"/>
<path d="M117.7,56.1h3c0.7,0,1.4,0.6,1.4,1.4v7.4c0,0.8,0.6,1.4,1.4,1.4h4.8c0.8,0,1.4-0.6,1.4-1.4v-7.4c0-0.7,0.6-1.4,1.4-1.4h3.1
	c0.8,0,1.3-1,0.8-1.6l-8-9.6c-0.5-0.6-1.5-0.6-2.1,0l-8,9.6C116.3,55.1,116.8,56.1,117.7,56.1z"/>
<path d="M342.2,43.4c-6.4,0-11.5,5.2-11.5,11.5c0,6.4,5.2,11.5,11.5,11.5c6.4,0,11.5-5.2,11.5-11.5
	C353.7,48.6,348.5,43.4,342.2,43.4z M347.4,55.8l-4.7,5.6c-0.3,0.4-0.9,0.4-1.2,0l-4.7-5.6c-0.3-0.4,0-1,0.4-1h1.8
	c0.4,0,0.8-0.4,0.8-0.8v-4.3c0-0.5,0.4-0.8,0.8-0.8h2.8c0.5,0,0.8,0.4,0.8,0.8v4.3c0,0.4,0.4,0.8,0.8,0.8h1.8
	C347.5,54.9,347.7,55.4,347.4,55.8z"/>
<path d="M414,66.5c6.4,0,11.5-5.2,11.5-11.5c0-6.4-5.2-11.5-11.5-11.5c-6.4,0-11.5,5.2-11.5,11.5C402.4,61.3,407.6,66.5,414,66.5z
	 M408.7,54.1l4.7-5.6c0.3-0.4,0.9-0.4,1.2,0l4.7,5.6c0.3,0.4,0,1-0.4,1H417c-0.4,0-0.8,0.4-0.8,0.8v4.3c0,0.5-0.4,0.8-0.8,0.8h-2.8
	c-0.5,0-0.8-0.4-0.8-0.8v-4.3c0-0.4-0.4-0.8-0.8-0.8h-1.8C408.7,55.1,408.4,54.5,408.7,54.1z"/>
<path d="M344.6,190v1.6c0,0.4-0.3,0.7-0.7,0.7h-10.1c-0.4,0-0.8,0.4-0.8,0.8v2.6c0,0.4,0.4,0.8,0.8,0.8h10.1c0.4,0,0.7,0.3,0.7,0.7
	v1.7c0,0.5,0.5,0.7,0.9,0.4l5.2-4.3c0.3-0.3,0.3-0.8,0-1.1l-5.2-4.3C345.1,189.3,344.6,189.6,344.6,190z"/>
<path d="M339.3,199.5v1.6c0,0.4,0.3,0.7,0.7,0.7h10.1c0.4,0,0.8,0.4,0.8,0.8v2.6c0,0.4-0.4,0.8-0.8,0.8h-10.1
	c-0.4,0-0.7,0.3-0.7,0.7v1.7c0,0.5-0.5,0.7-0.9,0.4l-5.2-4.3c-0.3-0.3-0.3-0.8,0-1.1l5.2-4.3C338.8,198.8,339.3,199.1,339.3,199.5z"
	/>
<path d="M193.9,47v16.6c0,0.8,0.9,1.2,1.6,0.7l9.6-7.9c0.7-0.6,0.7-1.7,0-2.3l-9.6-7.9C194.8,45.8,193.9,46.2,193.9,47z"/>
<path d="M341.9,117.4c-5.4,0-9.7,4.3-9.7,9.7c0,5.4,4.3,9.7,9.7,9.7c5.4,0,9.7-4.3,9.7-9.7C351.6,121.7,347.3,117.4,341.9,117.4z
	 M343.8,131c0,0.4-0.5,0.6-0.8,0.4l-4.7-3.8c-0.3-0.3-0.3-0.8,0-1.1l4.7-3.8c0.3-0.2,0.8,0,0.8,0.4V131z"/>
<path d="M56.2,130.5v-7.4c0-0.4-0.5-0.6-0.8-0.3l-4.6,3.5c-0.3,0.3-0.3,0.8,0,1l4.6,3.5C55.7,131.1,56.2,130.9,56.2,130.5z"/>
<path d="M274.4,63.6V47c0-0.8-0.9-1.2-1.6-0.7l-9.6,7.9c-0.7,0.6-0.7,1.7,0,2.3l9.6,7.9C273.4,64.9,274.4,64.4,274.4,63.6z"/>
<path d="M490.4,54.4l-3.2-3.2c-0.4-0.4-1.1-0.1-1.1,0.5v1.7c0,0.4-0.3,0.7-0.7,0.7h-3c-0.6,0-1.1,0.5-1.1,1.1v0
	c0,0.6,0.5,1.1,1.1,1.1h3c0.4,0,0.7,0.3,0.7,0.7v1.7c0,0.6,0.7,0.9,1.1,0.5l3.2-3.2C490.8,55.4,490.8,54.8,490.4,54.4z"/>
<path d="M556.1,196.1v-4.6c0-0.6-0.7-0.9-1.1-0.5l-1.2,1.2c-0.3,0.3-0.7,0.3-0.9,0l-2.6-2.6c-0.4-0.4-1.2-0.4-1.6,0l0,0
	c-0.4,0.4-0.4,1.2,0,1.6l2.6,2.6c0.3,0.3,0.3,0.7,0,0.9l-1.2,1.2c-0.4,0.4-0.1,1.1,0.5,1.1l4.6,0
	C555.7,197.1,556.1,196.7,556.1,196.1z"/>
<path d="M560.9,197.1h4.6c0.6,0,0.9-0.7,0.5-1.1l-1.2-1.2c-0.3-0.3-0.3-0.7,0-0.9l2.6-2.6c0.4-0.4,0.4-1.2,0-1.6l0,0
	c-0.4-0.4-1.2-0.4-1.6,0l-2.6,2.6c-0.3,0.3-0.7,0.3-0.9,0l-1.2-1.2c-0.4-0.4-1.1-0.1-1.1,0.5l0,4.6
	C559.9,196.7,560.4,197.1,560.9,197.1z"/>
<path d="M559.9,201.9v4.6c0,0.6,0.7,0.9,1.1,0.5l1.2-1.2c0.3-0.3,0.7-0.3,0.9,0l2.6,2.6c0.4,0.4,1.2,0.4,1.6,0l0,0
	c0.4-0.4,0.4-1.2,0-1.6l-2.6-2.6c-0.3-0.3-0.3-0.7,0-0.9l1.2-1.2c0.4-0.4,0.1-1.1-0.5-1.1l-4.6,0
	C560.4,200.9,559.9,201.3,559.9,201.9z"/>
<path d="M555.1,200.9h-4.6c-0.6,0-0.9,0.7-0.5,1.1l1.2,1.2c0.3,0.3,0.3,0.7,0,0.9l-2.6,2.6c-0.4,0.4-0.4,1.2,0,1.6l0,0
	c0.4,0.4,1.2,0.4,1.6,0l2.6-2.6c0.3-0.3,0.7-0.3,0.9,0l1.2,1.2c0.4,0.4,1.1,0.1,1.1-0.5v-4.6C556.1,201.3,555.7,200.9,555.1,200.9z"
	/>
<path d="M63.1,279.4v-4.6c0-0.6-0.7-0.9-1.1-0.5l-1.2,1.2c-0.3,0.3-0.7,0.3-0.9,0l-2.6-2.6c-0.4-0.4-1.2-0.4-1.6,0l0,0
	c-0.4,0.4-0.4,1.2,0,1.6l2.6,2.6c0.3,0.3,0.3,0.7,0,0.9l-1.2,1.2c-0.4,0.4-0.1,1.1,0.5,1.1l4.6,0C62.6,280.4,63.1,279.9,63.1,279.4z
	"/>
<path d="M46.1,280.4h4.6c0.6,0,0.9-0.7,0.5-1.1l-1.2-1.2c-0.3-0.3-0.3-0.7,0-0.9l2.6-2.6c0.4-0.4,0.4-1.2,0-1.6l0,0
	c-0.4-0.4-1.2-0.4-1.6,0l-2.6,2.6c-0.3,0.3-0.7,0.3-0.9,0l-1.2-1.2c-0.4-0.4-1.1-0.1-1.1,0.5l0,4.6
	C45.1,279.9,45.6,280.4,46.1,280.4z"/>
<path d="M45.1,263.4v4.6c0,0.6,0.7,0.9,1.1,0.5l1.2-1.2c0.3-0.3,0.7-0.3,0.9,0l2.6,2.6c0.4,0.4,1.2,0.4,1.6,0l0,0
	c0.4-0.4,0.4-1.2,0-1.6l-2.6-2.6c-0.3-0.3-0.3-0.7,0-0.9l1.2-1.2c0.4-0.4,0.1-1.1-0.5-1.1l-4.6,0C45.6,262.4,45.1,262.9,45.1,263.4z
	"/>
<path d="M62.1,262.4h-4.6c-0.6,0-0.9,0.7-0.5,1.1l1.2,1.2c0.3,0.3,0.3,0.7,0,0.9l-2.6,2.6c-0.4,0.4-0.4,1.2,0,1.6l0,0
	c0.4,0.4,1.2,0.4,1.6,0l2.6-2.6c0.3-0.3,0.7-0.3,0.9,0l1.2,1.2c0.4,0.4,1.1,0.1,1.1-0.5l0-4.6C63.1,262.9,62.6,262.4,62.1,262.4z"/>
<path d="M202.3,268.6c0.3-0.3,0.7-0.3,0.9,0l1.2,1.2c0.4,0.4,1.1,0.1,1.1-0.5l0-4.6c0-0.6-0.4-1-1-1h-4.6c-0.6,0-0.9,0.7-0.5,1.1
	l1.2,1.2c0.3,0.3,0.3,0.7,0,0.9l-6.6,6.5c-0.3,0.3-0.7,0.3-0.9,0l-1.2-1.2c-0.4-0.4-1.1-0.1-1.1,0.5l0,4.6c0,0.6,0.4,1,1,1h4.6
	c0.6,0,0.9-0.7,0.5-1.1l-1.2-1.2c-0.3-0.3-0.3-0.7,0-0.9L202.3,268.6z"/>
<path d="M120.4,265.7v-3.1c0-0.4-0.5-0.6-0.7-0.3l-0.8,0.8c-0.2,0.2-0.4,0.2-0.6,0l-1.7-1.7c-0.3-0.3-0.8-0.3-1.1,0l0,0
	c-0.3,0.3-0.3,0.8,0,1.1l1.7,1.7c0.2,0.2,0.2,0.4,0,0.6l-0.8,0.8c-0.3,0.3-0.1,0.7,0.3,0.7l3.1,0
	C120.1,266.4,120.4,266.1,120.4,265.7z"/>
<path d="M132,266.4h3.1c0.4,0,0.6-0.5,0.3-0.7l-0.8-0.8c-0.2-0.2-0.2-0.4,0-0.6l1.7-1.7c0.3-0.3,0.3-0.8,0-1.1l0,0
	c-0.3-0.3-0.8-0.3-1.1,0l-1.7,1.7c-0.2,0.2-0.4,0.2-0.6,0l-0.8-0.8c-0.3-0.3-0.7-0.1-0.7,0.3l0,3.1
	C131.4,266.1,131.7,266.4,132,266.4z"/>
<path d="M131.4,275.9v3.1c0,0.4,0.5,0.6,0.7,0.3l0.8-0.8c0.2-0.2,0.4-0.2,0.6,0l1.7,1.7c0.3,0.3,0.8,0.3,1.1,0l0,0
	c0.3-0.3,0.3-0.8,0-1.1l-1.7-1.7c-0.2-0.2-0.2-0.4,0-0.6l0.8-0.8c0.3-0.3,0.1-0.7-0.3-0.7l-3.1,0
	C131.7,275.2,131.4,275.5,131.4,275.9z"/>
<path d="M119.8,275.2h-3.1c-0.4,0-0.6,0.5-0.3,0.7l0.8,0.8c0.2,0.2,0.2,0.4,0,0.6l-1.7,1.7c-0.3,0.3-0.3,0.8,0,1.1l0,0
	c0.3,0.3,0.8,0.3,1.1,0l1.7-1.7c0.2-0.2,0.4-0.2,0.6,0l0.8,0.8c0.3,0.3,0.7,0.1,0.7-0.3l0-3.1C120.4,275.5,120.1,275.2,119.8,275.2z
	"/>
<path d="M486.1,45.3c-5.4,0-9.7,4.3-9.7,9.7c0,5.4,4.3,9.7,9.7,9.7c5.4,0,9.7-4.3,9.7-9.7C495.8,49.6,491.4,45.3,486.1,45.3z
	 M486.1,62.7c-4.2,0-7.7-3.4-7.7-7.7c0-4.2,3.4-7.7,7.7-7.7c4.2,0,7.7,3.4,7.7,7.7C493.7,59.2,490.3,62.7,486.1,62.7z"/>
<g>
	<path d="M553.8,55.7l3.2,3.2c0.4,0.4,1.1,0.1,1.1-0.5v-1.7c0-0.4,0.3-0.7,0.7-0.7h3c0.6,0,1.1-0.5,1.1-1.1v0c0-0.6-0.5-1.1-1.1-1.1
		h-3c-0.4,0-0.7-0.3-0.7-0.7v-1.7c0-0.6-0.7-0.9-1.1-0.5l-3.2,3.2C553.4,54.7,553.4,55.3,553.8,55.7z"/>
	<path d="M558.2,64.7c5.4,0,9.7-4.3,9.7-9.7c0-5.4-4.3-9.7-9.7-9.7c-5.4,0-9.7,4.3-9.7,9.7C548.4,60.4,552.8,64.7,558.2,64.7z
		 M558.2,47.3c4.2,0,7.7,3.4,7.7,7.7c0,4.2-3.4,7.7-7.7,7.7c-4.2,0-7.7-3.4-7.7-7.7C550.5,50.8,553.9,47.3,558.2,47.3z"/>
</g>
<path d="M486,117.2c-5.4,0-9.7,4.3-9.7,9.7c0,5.4,4.3,9.7,9.7,9.7c5.4,0,9.7-4.3,9.7-9.7C495.7,121.6,491.4,117.2,486,117.2z
	 M486,134.6c-4.2,0-7.7-3.4-7.7-7.7c0-4.2,3.4-7.7,7.7-7.7c4.2,0,7.7,3.4,7.7,7.7C493.7,131.2,490.2,134.6,486,134.6z"/>
<path d="M558,117.2c-5.4,0-9.7,4.3-9.7,9.7c0,5.4,4.3,9.7,9.7,9.7c5.4,0,9.7-4.3,9.7-9.7C567.7,121.6,563.4,117.2,558,117.2z
	 M558,134.6c-4.2,0-7.7-3.4-7.7-7.7c0-4.2,3.4-7.7,7.7-7.7c4.2,0,7.7,3.4,7.7,7.7C565.7,131.2,562.3,134.6,558,134.6z"/>
<path d="M54.1,117.2c-5.4,0-9.7,4.3-9.7,9.7c0,5.4,4.3,9.7,9.7,9.7c5.4,0,9.7-4.3,9.7-9.7C63.8,121.6,59.4,117.2,54.1,117.2z
	 M54.1,134.6c-4.2,0-7.7-3.4-7.7-7.7c0-4.2,3.4-7.7,7.7-7.7c4.2,0,7.7,3.4,7.7,7.7C61.7,131.2,58.3,134.6,54.1,134.6z"/>
<path d="M123.9,123.2v7.4c0,0.4,0.5,0.6,0.8,0.3l4.6-3.5c0.3-0.3,0.3-0.8,0-1l-4.6-3.5C124.4,122.7,123.9,122.9,123.9,123.2z"/>
<path d="M126.1,136.6c5.4,0,9.7-4.3,9.7-9.7c0-5.4-4.3-9.7-9.7-9.7c-5.4,0-9.7,4.3-9.7,9.7C116.3,132.2,120.7,136.6,126.1,136.6z
	 M126.1,119.2c4.2,0,7.7,3.4,7.7,7.7c0,4.2-3.4,7.7-7.7,7.7c-4.2,0-7.7-3.4-7.7-7.7C118.4,122.6,121.8,119.2,126.1,119.2z"/>
<path d="M414,117.4c-5.4,0-9.7,4.3-9.7,9.7c0,5.4,4.3,9.7,9.7,9.7c5.4,0,9.7-4.3,9.7-9.7C423.7,121.7,419.4,117.4,414,117.4z
	 M417.5,127.5l-4.7,3.8c-0.3,0.2-0.8,0-0.8-0.4V123c0-0.4,0.5-0.6,0.8-0.4l4.7,3.8C417.8,126.7,417.8,127.2,417.5,127.5z"/>
<path d="M198,117.2c-5.4,0-9.7,4.3-9.7,9.7c0,5.4,4.3,9.7,9.7,9.7c5.4,0,9.7-4.3,9.7-9.7C207.7,121.6,203.4,117.2,198,117.2z
	 M202.4,127.7l-3.2,3.2c-0.4,0.4-1.1,0.1-1.1-0.5v-1.7c0-0.4-0.3-0.7-0.7-0.7h-3c-0.6,0-1.1-0.5-1.1-1.1v0c0-0.6,0.5-1.1,1.1-1.1h3
	c0.4,0,0.7-0.3,0.7-0.7v-1.7c0-0.6,0.7-0.9,1.1-0.5l3.2,3.2C202.8,126.7,202.8,127.3,202.4,127.7z"/>
<path d="M270,136.8c5.4,0,9.7-4.3,9.7-9.7c0-5.4-4.3-9.7-9.7-9.7c-5.4,0-9.7,4.3-9.7,9.7C260.3,132.4,264.7,136.8,270,136.8z
	 M265.7,126.3l3.2-3.2c0.4-0.4,1.1-0.1,1.1,0.5v1.7c0,0.4,0.3,0.7,0.7,0.7h3c0.6,0,1.1,0.5,1.1,1.1v0c0,0.6-0.5,1.1-1.1,1.1h-3
	c-0.4,0-0.7,0.3-0.7,0.7v1.7c0,0.6-0.7,0.9-1.1,0.5l-3.2-3.2C265.3,127.3,265.3,126.7,265.7,126.3z"/>
<g>
	<path d="M484.5,130.2l-2.3-2.3c-0.4-0.4-0.4-1.1,0-1.5l0,0c0.4-0.4,1.1-0.4,1.5,0l1.3,1.3l3.6-3.6c0.4-0.4,1.1-0.4,1.5,0l0,0
		c0.4,0.4,0.4,1.1,0,1.5l-4.6,4.6C485.4,130.5,484.8,130.5,484.5,130.2z"/>
</g>
<path d="M559.4,127.1c0,0,0-0.1,0-0.1l1.9-1.9c0.3-0.3,0.3-0.9,0-1.3l0,0c-0.3-0.3-0.9-0.3-1.3,0l-1.9,1.9c0,0-0.1,0-0.1,0l-1.9-1.9
	c-0.3-0.3-0.9-0.3-1.3,0l0,0c-0.3,0.3-0.3,0.9,0,1.3l1.9,1.9c0,0,0,0.1,0,0.1l-1.9,1.9c-0.3,0.3-0.3,0.9,0,1.3l0,0
	c0.3,0.3,0.9,0.3,1.3,0l1.9-1.9c0,0,0.1,0,0.1,0l1.9,1.9c0.3,0.3,0.9,0.3,1.3,0l0,0c0.3-0.3,0.3-0.9,0-1.3L559.4,127.1z"/>
<path d="M54.1,189.2c-5.4,0-9.7,4.3-9.7,9.7s4.3,9.7,9.7,9.7s9.7-4.3,9.7-9.7S59.4,189.2,54.1,189.2z M58.4,197.5l-4.6,4.6
	c-0.3,0.3-0.9,0.3-1.2,0l-2.3-2.3c-0.4-0.4-0.4-1.1,0-1.5l0,0c0.4-0.4,1.1-0.4,1.5,0l1.3,1.3l3.6-3.6c0.4-0.4,1.1-0.4,1.5,0l0,0
	C58.8,196.4,58.8,197.1,58.4,197.5z"/>
<path d="M126.1,189.2c-5.4,0-9.7,4.3-9.7,9.7s4.3,9.7,9.7,9.7s9.7-4.3,9.7-9.7S131.5,189.2,126.1,189.2z M127.5,198.9l1.9,1.9
	c0.3,0.3,0.3,0.9,0,1.3l0,0c-0.3,0.3-0.9,0.3-1.3,0l-1.9-1.9c0,0-0.1,0-0.1,0l-1.9,1.9c-0.3,0.3-0.9,0.3-1.3,0l0,0
	c-0.3-0.3-0.3-0.9,0-1.3l1.9-1.9c0,0,0-0.1,0-0.1l-1.9-1.9c-0.3-0.3-0.3-0.9,0-1.3l0,0c0.3-0.3,0.9-0.3,1.3,0l1.9,1.9
	c0,0,0.1,0,0.1,0l1.9-1.9c0.3-0.3,0.9-0.3,1.3,0l0,0c0.3,0.3,0.3,0.9,0,1.3l-1.9,1.9C127.4,198.8,127.4,198.9,127.5,198.9z"/>
<path d="M203.8,205.6l-7.1,0c-0.4,0-0.7,0.3-0.7,0.7v1.7c0,0.5-0.5,0.7-0.9,0.4l-5.2-4.3c-0.3-0.3-0.3-0.8,0-1.1l5.2-4.3
	c0.4-0.3,0.9,0,0.9,0.4v1.7c0,0.4,0.3,0.7,0.7,0.7h3.8c0.4,0,0.7-0.3,0.7-0.7v-3.9c0-0.4-0.3-0.7-0.7-0.7h-8.7
	c-0.4,0-0.8-0.3-0.8-0.8v-2.6c0-0.4,0.3-0.8,0.8-0.8h12.1c0.8,0,1.4,0.6,1.4,1.4v10.7C205.2,204.9,204.6,205.6,203.8,205.6z"/>
<path d="M264.4,205.6l7.1,0c0.4,0,0.7,0.3,0.7,0.7v1.7c0,0.5,0.5,0.7,0.9,0.4l5.2-4.3c0.3-0.3,0.3-0.8,0-1.1l-5.2-4.3
	c-0.4-0.3-0.9,0-0.9,0.4v1.7c0,0.4-0.3,0.7-0.7,0.7h-3.8c-0.4,0-0.7-0.3-0.7-0.7v-3.9c0-0.4,0.3-0.7,0.7-0.7h8.7
	c0.4,0,0.8-0.3,0.8-0.8v-2.6c0-0.4-0.3-0.8-0.8-0.8h-12.1c-0.8,0-1.4,0.6-1.4,1.4v10.7C262.9,204.9,263.6,205.6,264.4,205.6z"/>
<path d="M412.2,194.2v-2c0-0.6-0.7-0.9-1.1-0.5l-6.9,6.2c-0.6,0.5-0.6,1.5,0,2l6.9,6.4c0.4,0.4,1.1,0.1,1.1-0.5v-2.6
	c0-0.8,0.6-1.4,1.4-1.4c5.5,0,8.3,1.5,9.9,3c0.5,0.4,1.2-0.1,1-0.7c-2.2-5.4-6.7-8.1-10.9-8.5C412.8,195.6,412.2,195,412.2,194.2z"
	/>
<path d="M488.1,194.2v-2c0-0.6,0.7-0.9,1.1-0.5l6.9,6.2c0.6,0.5,0.6,1.5,0,2l-6.9,6.4c-0.4,0.4-1.1,0.1-1.1-0.5v-2.6
	c0-0.8-0.6-1.4-1.4-1.4c-5.5,0-8.3,1.5-9.9,3c-0.5,0.4-1.2-0.1-1-0.7c2.2-5.4,6.7-8.1,10.9-8.5C487.5,195.6,488.1,195,488.1,194.2z"
	/>
<path d="M129.4,274.6h-6.9c-0.8,0-1.5-0.7-1.5-1.5v-4.7c0-0.8,0.7-1.5,1.5-1.5h6.9c0.8,0,1.5,0.7,1.5,1.5v4.7
	C130.9,274,130.2,274.6,129.4,274.6z"/>
<path d="M269.8,262.8v-1.2c0-0.3-0.3-0.4-0.6-0.3l-3.8,2.9c-0.3,0.3-0.3,0.8,0,1l3.8,2.9c0.2,0.2,0.6,0,0.6-0.3v-1.1
	c0-0.4,0.4-0.7,0.8-0.6c2.8,0.4,4.8,3.1,4.2,6.1c-0.4,1.9-1.9,3.4-3.8,3.8c-3.3,0.7-6.2-1.8-6.2-4.9c0-1,0.3-2,0.9-2.8
	c0.4-0.6,0.2-1.3-0.3-1.7l0,0c-0.6-0.4-1.3-0.3-1.7,0.3c-1.1,1.6-1.6,3.6-1.1,5.8c0.6,2.9,3,5.3,5.9,5.8c4.8,0.9,9.1-2.7,9.1-7.4
	c0-4-3-7.2-6.9-7.5C270.1,263.4,269.8,263.1,269.8,262.8z"/>
<g>
	<path d="M342.2,263.2c-0.3,0-0.6-0.3-0.6-0.6v-1.2c0-0.3-0.3-0.4-0.6-0.3l-3.8,2.9c-0.3,0.3-0.3,0.8,0,1l3.8,2.9
		c0.2,0.2,0.6,0,0.6-0.3v-1.1c0-0.4,0.4-0.7,0.8-0.6c2.8,0.4,4.8,3.1,4.2,6.1c-0.1,0.6-0.4,1.2-0.7,1.7c-0.4,0.6-0.2,1.3,0.3,1.7
		l0,0c0.6,0.4,1.3,0.3,1.7-0.3c0.8-1.2,1.3-2.6,1.3-4.2C349.2,266.8,346.1,263.5,342.2,263.2z"/>
</g>
<g>
	<path d="M341,278.2c0.3,0,0.6,0.3,0.6,0.6v1.2c0,0.3,0.3,0.4,0.6,0.3l3.8-2.9c0.3-0.3,0.3-0.8,0-1l-3.8-2.9c-0.2-0.2-0.6,0-0.6,0.3
		v1.1c0,0.4-0.4,0.7-0.8,0.6c-2.8-0.4-4.8-3.1-4.2-6.1c0.1-0.6,0.4-1.2,0.7-1.7c0.4-0.6,0.2-1.3-0.3-1.7l0,0
		c-0.6-0.4-1.3-0.3-1.7,0.3c-0.8,1.2-1.3,2.6-1.3,4.2C334.1,274.6,337.1,277.9,341,278.2z"/>
</g>
<g>
	<path d="M414.5,263.2c-0.3,0-0.6-0.3-0.6-0.6v-1.2c0-0.3-0.3-0.4-0.6-0.3l-3.8,2.9c-0.3,0.3-0.3,0.8,0,1l3.8,2.9
		c0.2,0.2,0.6,0,0.6-0.3v-1.1c0-0.4,0.4-0.7,0.8-0.6c1.6,0.3,3,1.3,3.7,2.7c0.3,0.6,1,0.8,1.6,0.5l0,0c0.6-0.3,0.9-1,0.6-1.6
		C419.5,265,417.2,263.4,414.5,263.2z"/>
</g>
<g>
	<path d="M407.2,273.9c0.1,0.3,0.1,0.7-0.2,0.9l-1.1,0.6c-0.2,0.1-0.2,0.5,0,0.6l4.4,1.9c0.4,0.2,0.8-0.1,0.9-0.5l0.6-4.7
		c0-0.3-0.3-0.5-0.5-0.3l-1,0.6c-0.4,0.2-0.8,0-0.9-0.3c-0.6-1.6-0.4-3.3,0.5-4.6c0.4-0.5,0.2-1.3-0.4-1.7l0,0
		c-0.6-0.4-1.3-0.2-1.7,0.3C406.3,268.6,406,271.4,407.2,273.9z"/>
</g>
<g>
	<path d="M420.1,274.9c0.2-0.3,0.6-0.4,0.9-0.2l1.1,0.6c0.2,0.1,0.6-0.1,0.5-0.3l-0.6-4.7c-0.1-0.4-0.5-0.7-0.9-0.5l-4.4,1.8
		c-0.3,0.1-0.3,0.5,0,0.6l1,0.6c0.4,0.2,0.4,0.7,0.2,1c-1,1.3-2.6,2-4.3,1.9c-0.7,0-1.2,0.5-1.3,1.2l0,0c0,0.7,0.5,1.3,1.1,1.3
		C416,278.3,418.6,277.1,420.1,274.9z"/>
</g>
<path d="M478.2,273c0.6-0.2,1-0.8,0.9-1.5c-0.1-0.8,0-1.7,0.5-2.7c0.6-1.1,1.9-1.7,3.1-1.7h0h5c0.4,0,0.6,0.3,0.6,0.6v1.2
	c0,0.3,0.3,0.4,0.6,0.3l3.8-2.8c0.4-0.3,0.4-0.8,0-1.1l-3.8-2.8c-0.2-0.2-0.6,0-0.6,0.3v1.2c0,0.4-0.3,0.6-0.6,0.6h-5h0
	c-2.5,0-4.9,1.5-5.8,3.9c-0.4,1.2-0.5,2.4-0.3,3.5C476.7,272.7,477.5,273.2,478.2,273z"/>
<path d="M493.8,268.4c-0.6,0.2-1,0.8-0.9,1.5c0.1,0.8,0,1.7-0.5,2.7c-0.6,1.1-1.9,1.7-3.1,1.7h0h-5c-0.4,0-0.6-0.3-0.6-0.6v-1.2
	c0-0.3-0.3-0.4-0.6-0.3l-3.8,2.8c-0.4,0.3-0.4,0.8,0,1.1l3.8,2.8c0.2,0.2,0.6,0,0.6-0.3v-1.2c0-0.4,0.3-0.6,0.6-0.6h5h0
	c2.5,0,4.9-1.5,5.8-3.9c0.4-1.2,0.5-2.4,0.3-3.5C495.3,268.6,494.5,268.1,493.8,268.4z"/>
<path d="M551,281.2h-1.9c-0.8,0-1.5-0.7-1.5-1.5V275c0-0.8,0.7-1.5,1.5-1.5h1.9c0.8,0,1.5,0.7,1.5,1.5v4.7
	C552.6,280.5,551.9,281.2,551,281.2z"/>
<path d="M559.1,281.2h-1.9c-0.8,0-1.5-0.7-1.5-1.5v-19.6c0-0.8,0.7-1.5,1.5-1.5h1.9c0.8,0,1.5,0.7,1.5,1.5v19.6
	C560.6,280.5,559.9,281.2,559.1,281.2z"/>
<path d="M567.2,281.2h-1.9c-0.8,0-1.5-0.7-1.5-1.5v-12.1c0-0.8,0.7-1.5,1.5-1.5h1.9c0.8,0,1.5,0.7,1.5,1.5v12.1
	C568.7,280.5,568,281.2,567.2,281.2z"/>
<path d="M423.4,334.6c0-0.7-0.6-1.3-1.3-1.3h-16.6c-0.7,0-1.3,0.6-1.3,1.3l-0.2,13.5c0,0.7,0.6,1.3,1.3,1.3h17.1
	c0.7,0,1.3-0.6,1.3-1.3L423.4,334.6z M411,345.2c0,0.4-0.3,0.8-0.8,0.8h-1c-0.4,0-0.8-0.3-0.8-0.8l0.1-1.7c0-0.4,0.3-0.8,0.8-0.8
	h0.9c0.4,0,0.8,0.3,0.8,0.8V345.2z M415,345.2c0,0.4-0.3,0.8-0.8,0.8h-1c-0.4,0-0.8-0.3-0.8-0.8v-8c0-0.4,0.3-0.8,0.8-0.8h1
	c0.4,0,0.8,0.3,0.8,0.8V345.2z M418.3,345.9h-1c-0.4,0-0.8-0.3-0.8-0.8v-4.9c0-0.4,0.3-0.8,0.8-0.8h0.9c0.4,0,0.8,0.3,0.8,0.8
	l0.1,4.9C419.1,345.6,418.7,345.9,418.3,345.9z"/>
<path d="M44.9,352.6h-2c-0.8,0-1.5-0.7-1.5-1.5v-0.9c0-0.8,0.7-1.5,1.5-1.5h2c0.8,0,1.5,0.7,1.5,1.5v0.9
	C46.4,352,45.7,352.6,44.9,352.6z"/>
<path d="M51.7,352.6h-2c-0.8,0-1.5-0.7-1.5-1.5v-4.7c0-0.8,0.7-1.5,1.5-1.5h2c0.8,0,1.5,0.7,1.5,1.5v4.7
	C53.2,352,52.5,352.6,51.7,352.6z"/>
<path d="M58.5,352.6h-2c-0.8,0-1.5-0.7-1.5-1.5V339c0-0.8,0.7-1.5,1.5-1.5h2c0.8,0,1.5,0.7,1.5,1.5v12.2
	C60,352,59.3,352.6,58.5,352.6z"/>
<path d="M65.3,352.6h-2c-0.8,0-1.5-0.7-1.5-1.5v-19.6c0-0.8,0.7-1.5,1.5-1.5h2c0.8,0,1.5,0.7,1.5,1.5v19.6
	C66.8,352,66.1,352.6,65.3,352.6z"/>
<path d="M114.1,349c-0.5-0.5-0.5-1.4,0-1.9l5.5-5.5c0.4-0.4,1.1-0.4,1.5,0l3.9,3.9c0.3,0.3,0.8,0.3,1.1,0l3.9-3.9
	c0.3-0.3,0.3-0.8,0-1.1l-1.4-1.4c-0.5-0.5-0.1-1.3,0.5-1.3h5.3c0.6,0,1.2,0.5,1.2,1.2l0,5.3c0,0.7-0.8,1-1.3,0.5l-1.4-1.4
	c-0.3-0.3-0.8-0.3-1.1,0l-5.6,5.6c-0.4,0.4-1,0.4-1.4,0l-3.9-3.9c-0.3-0.3-0.8-0.3-1.1,0l-3.8,3.8
	C115.4,349.5,114.6,349.5,114.1,349z"/>
<path d="M279.7,334.6c0-0.7-0.6-1.3-1.3-1.3h-16.6c-0.7,0-1.3,0.6-1.3,1.3l-0.2,13.5c0,0.7,0.6,1.3,1.3,1.3h17.1
	c0.7,0,1.3-0.6,1.3-1.3L279.7,334.6z M276.4,341.3c0,0.4-0.5,0.6-0.7,0.3l-0.8-0.8c-0.2-0.2-0.4-0.2-0.6,0l-3.2,3.2
	c-0.2,0.2-0.6,0.2-0.8,0l-2.3-2.3c-0.2-0.2-0.4-0.2-0.6,0l-2.2,2.2c-0.3,0.3-0.8,0.3-1.1,0c-0.3-0.3-0.3-0.8,0-1.1l3.2-3.2
	c0.2-0.2,0.6-0.2,0.9,0l2.2,2.2c0.2,0.2,0.4,0.2,0.6,0l2.3-2.3c0.2-0.2,0.2-0.4,0-0.6l-0.8-0.8c-0.3-0.3-0.1-0.7,0.3-0.7h3
	c0.4,0,0.7,0.3,0.7,0.7L276.4,341.3z"/>
<path d="M187.4,337.7c-0.5,0.5-0.5,1.4,0,1.9l5.5,5.5c0.4,0.4,1.1,0.4,1.5,0l3.9-3.9c0.3-0.3,0.8-0.3,1.1,0l3.9,3.9
	c0.3,0.3,0.3,0.8,0,1.1l-1.4,1.4c-0.5,0.5-0.1,1.3,0.5,1.3h5.3c0.6,0,1.2-0.5,1.2-1.2l0-5.3c0-0.7-0.8-1-1.3-0.5l-1.4,1.4
	c-0.3,0.3-0.8,0.3-1.1,0l-5.6-5.6c-0.4-0.4-1-0.4-1.4,0l-3.9,3.9c-0.3,0.3-0.8,0.3-1.1,0l-3.8-3.8
	C188.7,337.2,187.9,337.2,187.4,337.7z"/>
<path d="M351.5,334.6c0-0.7-0.6-1.3-1.3-1.3h-16.6c-0.7,0-1.3,0.6-1.3,1.3l-0.2,13.5c0,0.7,0.6,1.3,1.3,1.3h17.1
	c0.7,0,1.3-0.6,1.3-1.3L351.5,334.6z M347.7,345h-3.1c-0.4,0-0.6-0.5-0.3-0.7l0.8-0.8c0.2-0.2,0.2-0.4,0-0.6l-2.3-2.3
	c-0.2-0.2-0.4-0.2-0.6,0l-2.2,2.2c-0.2,0.2-0.6,0.2-0.9,0l-3.2-3.2c-0.3-0.3-0.3-0.8,0-1.1s0.8-0.3,1.1,0l2.2,2.2
	c0.2,0.2,0.4,0.2,0.6,0l2.3-2.3c0.2-0.2,0.6-0.2,0.8,0l3.3,3.3c0.2,0.2,0.4,0.2,0.6,0l0.8-0.8c0.3-0.3,0.7-0.1,0.7,0.3l0,3.1
	C348.3,344.7,348,345,347.7,345z"/>
<path d="M270.1,332.1c0,0,0.8,0,1.3,0s0.7-0.4,0.7-0.7c0-0.3-0.1-0.7-0.6-0.8c-0.5-0.1-0.6-0.2-0.6-0.6c0-0.4-0.4-0.7-0.8-0.7
	c-0.4,0-0.8,0.3-0.8,0.7c0,0.4-0.2,0.5-0.6,0.6c-0.5,0.1-0.6,0.5-0.6,0.8c0,0.3,0.3,0.7,0.7,0.7S270.1,332.1,270.1,332.1z"/>
<path d="M279.2,350.5H261c-0.4,0-0.8,0.3-0.8,0.8s0.3,0.8,0.8,0.8h1c0.4,0,0.7,0.4,0.6,0.8l-0.4,1.6c-0.1,0.4,0.1,0.8,0.5,0.9
	c0.1,0,0.1,0,0.2,0c0.3,0,0.6-0.2,0.7-0.6l0.5-2c0.1-0.4,0.5-0.8,1-0.8h10c0.5,0,0.9,0.3,1,0.7l0.5,2c0.1,0.3,0.4,0.6,0.7,0.6
	c0.1,0,0.1,0,0.2,0c0.4-0.1,0.6-0.5,0.5-0.9l-0.4-1.6c-0.1-0.4,0.2-0.8,0.6-0.8h1c0.4,0,0.8-0.3,0.8-0.8S279.6,350.5,279.2,350.5z"
	/>
<path d="M342,332.1c0,0,0.8,0,1.3,0s0.7-0.4,0.7-0.7c0-0.3-0.1-0.7-0.6-0.8c-0.5-0.1-0.6-0.2-0.6-0.6c0-0.4-0.4-0.7-0.8-0.7
	c-0.4,0-0.8,0.3-0.8,0.7c0,0.4-0.2,0.5-0.6,0.6c-0.5,0.1-0.6,0.5-0.6,0.8c0,0.3,0.3,0.7,0.7,0.7S342,332.1,342,332.1z"/>
<path d="M351.1,350.5h-18.2c-0.4,0-0.8,0.3-0.8,0.8s0.3,0.8,0.8,0.8h1c0.4,0,0.7,0.4,0.6,0.8l-0.4,1.6c-0.1,0.4,0.1,0.8,0.5,0.9
	c0.1,0,0.1,0,0.2,0c0.3,0,0.6-0.2,0.7-0.6l0.5-2c0.1-0.4,0.5-0.8,1-0.8h10c0.5,0,0.9,0.3,1,0.7l0.5,2c0.1,0.3,0.4,0.6,0.7,0.6
	c0.1,0,0.1,0,0.2,0c0.4-0.1,0.6-0.5,0.5-0.9l-0.4-1.6c-0.1-0.4,0.2-0.8,0.6-0.8h1c0.4,0,0.8-0.3,0.8-0.8S351.5,350.5,351.1,350.5z"
	/>
<path d="M413.9,332.1c0,0,0.8,0,1.3,0s0.7-0.4,0.7-0.7c0-0.3-0.1-0.7-0.6-0.8c-0.5-0.1-0.6-0.2-0.6-0.6c0-0.4-0.4-0.7-0.8-0.7
	c-0.4,0-0.8,0.3-0.8,0.7c0,0.4-0.2,0.5-0.6,0.6c-0.5,0.1-0.6,0.5-0.6,0.8c0,0.3,0.3,0.7,0.7,0.7S413.9,332.1,413.9,332.1z"/>
<path d="M422.9,350.5h-18.2c-0.4,0-0.8,0.3-0.8,0.8s0.3,0.8,0.8,0.8h1c0.4,0,0.7,0.4,0.6,0.8l-0.4,1.6c-0.1,0.4,0.1,0.8,0.5,0.9
	c0.1,0,0.1,0,0.2,0c0.3,0,0.6-0.2,0.7-0.6l0.5-2c0.1-0.4,0.5-0.8,1-0.8h10c0.5,0,0.9,0.3,1,0.7l0.5,2c0.1,0.3,0.4,0.6,0.7,0.6
	c0.1,0,0.1,0,0.2,0c0.4-0.1,0.6-0.5,0.5-0.9l-0.4-1.6c-0.1-0.4,0.2-0.8,0.6-0.8h1c0.4,0,0.8-0.3,0.8-0.8S423.4,350.5,422.9,350.5z"
	/>
<path d="M486,343.5c-0.6,0-1.2,0.5-1.2,1.1v4.3c0,0.4-0.3,0.7-0.7,0.7h-1.7c-0.6,0-0.9,0.7-0.5,1.1l3.2,3.2c0.4,0.4,1,0.4,1.4,0
	l3.2-3.2c0.4-0.4,0.1-1.1-0.5-1.1h-1.7c-0.4,0-0.7-0.3-0.7-0.7v-4.3C487.1,344,486.6,343.5,486,343.5z"/>
<path d="M490.2,353.3c0,0.5,0.4,1,1,1h4.5c0.8,0,1.4-0.6,1.4-1.4v-19.5c0-0.8-0.6-1.4-1.4-1.4h-19.5c-0.8,0-1.4,0.6-1.4,1.4v19.5
	c0,0.8,0.6,1.4,1.4,1.4h4.6c0.5,0,1-0.4,1-1c0-0.5-0.4-1-1-1h-3.4c-0.4,0-0.7-0.3-0.7-0.7v-13.9c0-0.4,0.3-0.7,0.7-0.7h17.1
	c0.4,0,0.7,0.3,0.7,0.7v13.9c0,0.4-0.3,0.7-0.7,0.7h-3.3C490.7,352.3,490.2,352.8,490.2,353.3z M489,335.4c-0.5,0-0.9-0.4-0.9-0.9
	c0-0.5,0.4-0.9,0.9-0.9s0.9,0.4,0.9,0.9C489.9,335,489.5,335.4,489,335.4z M491.7,335.4c-0.5,0-0.9-0.4-0.9-0.9
	c0-0.5,0.4-0.9,0.9-0.9s0.9,0.4,0.9,0.9C492.5,335,492.2,335.4,491.7,335.4z M494.3,335.4c-0.5,0-0.9-0.4-0.9-0.9
	c0-0.5,0.4-0.9,0.9-0.9s0.9,0.4,0.9,0.9C495.2,335,494.8,335.4,494.3,335.4z"/>
<path d="M558.1,354.2c0.6,0,1.2-0.5,1.2-1.1v-4.3c0-0.4,0.3-0.7,0.7-0.7h1.7c0.6,0,0.9-0.7,0.5-1.1l-3.2-3.2c-0.4-0.4-1-0.4-1.4,0
	l-3.2,3.2c-0.4,0.4-0.1,1.1,0.5,1.1h1.7c0.4,0,0.7,0.3,0.7,0.7v4.3C557,353.7,557.5,354.2,558.1,354.2z"/>
<path d="M562.4,353.3c0,0.5,0.4,1,1,1h4.5c0.8,0,1.4-0.6,1.4-1.4v-19.5c0-0.8-0.6-1.4-1.4-1.4h-19.5c-0.8,0-1.4,0.6-1.4,1.4v19.5
	c0,0.8,0.6,1.4,1.4,1.4h4.6c0.5,0,1-0.4,1-1c0-0.5-0.4-1-1-1h-3.4c-0.4,0-0.7-0.3-0.7-0.7v-13.9c0-0.4,0.3-0.7,0.7-0.7h17.1
	c0.4,0,0.7,0.3,0.7,0.7v13.9c0,0.4-0.3,0.7-0.7,0.7h-3.3C562.8,352.3,562.4,352.8,562.4,353.3z M561.2,335.4c-0.5,0-0.9-0.4-0.9-0.9
	c0-0.5,0.4-0.9,0.9-0.9s0.9,0.4,0.9,0.9C562.1,335,561.7,335.4,561.2,335.4z M563.9,335.4c-0.5,0-0.9-0.4-0.9-0.9
	c0-0.5,0.4-0.9,0.9-0.9s0.9,0.4,0.9,0.9C564.7,335,564.3,335.4,563.9,335.4z M566.5,335.4c-0.5,0-0.9-0.4-0.9-0.9
	c0-0.5,0.4-0.9,0.9-0.9s0.9,0.4,0.9,0.9C567.4,335,567,335.4,566.5,335.4z"/>
<path d="M51,421.6c0.4,0.4,1.1,0.4,1.5,0l5.3-5.3c0.2-0.2,0.6-0.2,0.9,0l1.1,1.1c0.4,0.4,1,0.1,1-0.4l0-4.3c0-0.5-0.4-0.9-0.9-0.9
	h-4.3c-0.5,0-0.8,0.7-0.4,1l1.1,1.1c0.2,0.2,0.2,0.6,0,0.9l-5.3,5.3C50.5,420.5,50.5,421.1,51,421.6z"/>
<path d="M43,405.3V425c0,0.7,0.6,1.4,1.3,1.4H64c0.7,0,1.3-0.6,1.3-1.4v-19.6c0-0.7-0.6-1.4-1.3-1.4H44.3
	C43.6,404,43,404.6,43,405.3z M62.9,424.3H45.4c-0.3,0-0.5-0.2-0.5-0.5v-14.2c0-0.3,0.2-0.5,0.5-0.5h17.5c0.3,0,0.5,0.2,0.5,0.5
	v14.2C63.4,424.1,63.2,424.3,62.9,424.3z"/>
<path d="M132.5,412c-0.4-0.4-1.1-0.4-1.5,0l-5.3,5.3c-0.2,0.2-0.6,0.2-0.9,0l-1.1-1.1c-0.4-0.4-1-0.1-1,0.4l0,4.3
	c0,0.5,0.4,0.9,0.9,0.9h4.3c0.5,0,0.8-0.7,0.4-1l-1.1-1.1c-0.2-0.2-0.2-0.6,0-0.9l5.3-5.3C132.9,413.1,132.9,412.4,132.5,412z"/>
<path d="M114.9,405.3V425c0,0.7,0.6,1.4,1.3,1.4h19.6c0.7,0,1.4-0.6,1.4-1.4v-19.6c0-0.7-0.6-1.4-1.4-1.4h-19.6
	C115.5,404,114.9,404.6,114.9,405.3z M134.8,424.3h-17.5c-0.3,0-0.5-0.2-0.5-0.5v-14.2c0-0.3,0.2-0.5,0.5-0.5h17.5
	c0.3,0,0.5,0.2,0.5,0.5v14.2C135.3,424.1,135.1,424.3,134.8,424.3z"/>
<path d="M331.1,405.8v19.6c0,0.7,0.6,1.4,1.4,1.4H352c0.7,0,1.3-0.6,1.3-1.4v-19.6c0-0.7-0.6-1.4-1.3-1.4h-19.6
	C331.7,404.4,331.1,405,331.1,405.8z M350.9,424.8h-17.5c-0.3,0-0.5-0.2-0.5-0.5v-14.2c0-0.3,0.2-0.5,0.5-0.5h17.5
	c0.3,0,0.5,0.2,0.5,0.5v14.2C351.4,424.5,351.2,424.8,350.9,424.8z"/>
<path d="M190.9,405.8L190.9,405.8c0,0.5,0.4,0.9,0.9,0.9h11c0.3,0,0.6,0.3,0.6,0.6v15.8c0,0.3-0.3,0.6-0.6,0.6h-11
	c-0.5,0-0.9,0.4-0.9,0.9v0c0,0.5,0.4,0.9,0.9,0.9h12c0.7,0,1.3-0.6,1.3-1.3v-18c0-0.7-0.6-1.3-1.3-1.3h-12
	C191.3,404.9,190.9,405.3,190.9,405.8z"/>
<path d="M263.1,405.8L263.1,405.8c0,0.5,0.4,0.9,0.9,0.9h11c0.3,0,0.6,0.3,0.6,0.6v15.8c0,0.3-0.3,0.6-0.6,0.6h-11
	c-0.5,0-0.9,0.4-0.9,0.9v0c0,0.5,0.4,0.9,0.9,0.9h12c0.7,0,1.3-0.6,1.3-1.3v-18c0-0.7-0.6-1.3-1.3-1.3h-12
	C263.5,404.9,263.1,405.3,263.1,405.8z"/>
<path d="M196.2,411.5v1.3c0,0.3-0.3,0.6-0.6,0.6h-3.2c-0.3,0-0.6,0.3-0.6,0.6v2.1c0,0.3,0.3,0.6,0.6,0.6h3.2c0.3,0,0.6,0.3,0.6,0.6
	v1.3c0,0.4,0.4,0.6,0.7,0.3l4.1-3.5c0.3-0.2,0.3-0.7,0-0.9l-4.1-3.5C196.6,411,196.2,411.2,196.2,411.5z"/>
<path d="M269,418.7v-1.3c0-0.3,0.3-0.6,0.6-0.6h3.2c0.3,0,0.6-0.3,0.6-0.6v-2.1c0-0.3-0.3-0.6-0.6-0.6h-3.2c-0.3,0-0.6-0.3-0.6-0.6
	v-1.3c0-0.4-0.4-0.6-0.7-0.3l-4.1,3.5c-0.3,0.2-0.3,0.7,0,0.9l4.1,3.5C268.6,419.2,269,419,269,418.7z"/>
<path d="M346.3,414.6H338c-0.4,0-0.6,0.5-0.4,0.8l4,4.8c0.3,0.4,0.8,0.4,1.1,0l4-4.8C347,415,346.7,414.6,346.3,414.6z"/>
<path d="M402.9,405.8v19.6c0,0.7,0.6,1.4,1.4,1.4h19.6c0.7,0,1.4-0.6,1.4-1.4v-19.6c0-0.7-0.6-1.4-1.4-1.4h-19.6
	C403.5,404.4,402.9,405,402.9,405.8z M422.8,424.8h-17.5c-0.3,0-0.5-0.2-0.5-0.5v-14.2c0-0.3,0.2-0.5,0.5-0.5h17.5
	c0.3,0,0.5,0.2,0.5,0.5v14.2C423.3,424.5,423,424.8,422.8,424.8z"/>
<path d="M474.9,405.8v19.6c0,0.7,0.6,1.4,1.3,1.4h19.6c0.7,0,1.4-0.6,1.4-1.4v-19.6c0-0.7-0.6-1.4-1.4-1.4h-19.6
	C475.5,404.4,474.9,405,474.9,405.8z M494.8,424.8h-17.5c-0.3,0-0.5-0.2-0.5-0.5v-14.2c0-0.3,0.2-0.5,0.5-0.5h17.5
	c0.3,0,0.5,0.2,0.5,0.5v14.2C495.3,424.5,495.1,424.8,494.8,424.8z"/>
<path d="M409.8,419.3h8.3c0.4,0,0.6-0.5,0.4-0.8l-4-4.8c-0.3-0.4-0.8-0.4-1.1,0l-4,4.8C409.2,418.8,409.4,419.3,409.8,419.3z"/>
<path d="M489.2,416.7c0,0.4-0.3,0.7-0.7,0.7h-3.7c-0.4,0-0.7-0.3-0.7-0.7s0.3-0.7,0.7-0.7h3.7C488.9,416.1,489.2,416.4,489.2,416.7z
	"/>
<path d="M480.6,417.3c-0.3,0.3-0.7,0.3-0.9,0c-0.3-0.3-0.3-0.7,0-0.9l1.5-1.5c0.1-0.1,0.1-0.4,0-0.5l-1.5-1.5
	c-0.3-0.3-0.3-0.7,0-0.9c0.3-0.3,0.7-0.3,0.9,0l2.5,2.5c0.1,0.1,0.1,0.4,0,0.5L480.6,417.3z"/>
<path d="M549.6,424.2c-0.4,0-0.7-0.3-0.7-0.7v-13.9c0-0.4,0.3-0.7,0.7-0.7h17.1c0.4,0,0.7,0.3,0.7,0.7v13.9c0,0.4-0.3,0.7-0.7,0.7
	H549.6z M567.9,426.2c0.8,0,1.4-0.6,1.4-1.4v-19.5c0-0.8-0.6-1.4-1.4-1.4h-19.5c-0.8,0-1.4,0.6-1.4,1.4v19.5c0,0.8,0.6,1.4,1.4,1.4
	H567.9z M561.2,407.3c-0.5,0-0.9-0.4-0.9-0.9c0-0.5,0.4-0.9,0.9-0.9s0.9,0.4,0.9,0.9C562.1,406.9,561.7,407.3,561.2,407.3z
	 M563.9,407.3c-0.5,0-0.9-0.4-0.9-0.9c0-0.5,0.4-0.9,0.9-0.9s0.9,0.4,0.9,0.9C564.7,406.9,564.3,407.3,563.9,407.3z M566.5,407.3
	c-0.5,0-0.9-0.4-0.9-0.9c0-0.5,0.4-0.9,0.9-0.9s0.9,0.4,0.9,0.9C567.4,406.9,567,407.3,566.5,407.3z"/>
<path d="M45.6,496.3c-0.4,0-0.7-0.3-0.7-0.7v-13.9c0-0.4,0.3-0.7,0.7-0.7h17.1c0.4,0,0.7,0.3,0.7,0.7v13.9c0,0.4-0.3,0.7-0.7,0.7
	H45.6z M63.9,498.2c0.8,0,1.4-0.6,1.4-1.4v-19.5c0-0.8-0.6-1.4-1.4-1.4H44.4c-0.8,0-1.4,0.6-1.4,1.4v19.5c0,0.8,0.6,1.4,1.4,1.4
	H63.9z M57.2,479.3c-0.5,0-0.9-0.4-0.9-0.9c0-0.5,0.4-0.9,0.9-0.9s0.9,0.4,0.9,0.9C58.1,478.9,57.7,479.3,57.2,479.3z M59.9,479.3
	c-0.5,0-0.9-0.4-0.9-0.9c0-0.5,0.4-0.9,0.9-0.9s0.9,0.4,0.9,0.9C60.7,478.9,60.3,479.3,59.9,479.3z M62.5,479.3
	c-0.5,0-0.9-0.4-0.9-0.9c0-0.5,0.4-0.9,0.9-0.9s0.9,0.4,0.9,0.9C63.4,478.9,63,479.3,62.5,479.3z"/>
<path d="M117.4,496.3c-0.4,0-0.7-0.3-0.7-0.7v-13.9c0-0.4,0.3-0.7,0.7-0.7h17.1c0.4,0,0.7,0.3,0.7,0.7v13.9c0,0.4-0.3,0.7-0.7,0.7
	H117.4z M135.7,498.2c0.8,0,1.4-0.6,1.4-1.4v-19.5c0-0.8-0.6-1.4-1.4-1.4h-19.5c-0.8,0-1.4,0.6-1.4,1.4v19.5c0,0.8,0.6,1.4,1.4,1.4
	H135.7z M129,479.3c-0.5,0-0.9-0.4-0.9-0.9c0-0.5,0.4-0.9,0.9-0.9s0.9,0.4,0.9,0.9C129.9,478.9,129.5,479.3,129,479.3z M131.7,479.3
	c-0.5,0-0.9-0.4-0.9-0.9c0-0.5,0.4-0.9,0.9-0.9s0.9,0.4,0.9,0.9C132.5,478.9,132.1,479.3,131.7,479.3z M134.3,479.3
	c-0.5,0-0.9-0.4-0.9-0.9c0-0.5,0.4-0.9,0.9-0.9s0.9,0.4,0.9,0.9C135.2,478.9,134.8,479.3,134.3,479.3z"/>
<path d="M189.4,496.3c-0.4,0-0.7-0.3-0.7-0.7v-13.9c0-0.4,0.3-0.7,0.7-0.7h17.1c0.4,0,0.7,0.3,0.7,0.7v13.9c0,0.4-0.3,0.7-0.7,0.7
	H189.4z M207.7,498.2c0.8,0,1.4-0.6,1.4-1.4v-19.5c0-0.8-0.6-1.4-1.4-1.4h-19.5c-0.8,0-1.4,0.6-1.4,1.4v19.5c0,0.8,0.6,1.4,1.4,1.4
	H207.7z M201,479.3c-0.5,0-0.9-0.4-0.9-0.9c0-0.5,0.4-0.9,0.9-0.9s0.9,0.4,0.9,0.9C201.9,478.9,201.5,479.3,201,479.3z M203.7,479.3
	c-0.5,0-0.9-0.4-0.9-0.9c0-0.5,0.4-0.9,0.9-0.9s0.9,0.4,0.9,0.9C204.5,478.9,204.1,479.3,203.7,479.3z M206.3,479.3
	c-0.5,0-0.9-0.4-0.9-0.9c0-0.5,0.4-0.9,0.9-0.9s0.9,0.4,0.9,0.9C207.2,478.9,206.8,479.3,206.3,479.3z"/>
<path d="M261.5,496.3c-0.4,0-0.7-0.3-0.7-0.7v-13.9c0-0.4,0.3-0.7,0.7-0.7h17.1c0.4,0,0.7,0.3,0.7,0.7v13.9c0,0.4-0.3,0.7-0.7,0.7
	H261.5z M279.8,498.2c0.8,0,1.4-0.6,1.4-1.4v-19.5c0-0.8-0.6-1.4-1.4-1.4h-19.5c-0.8,0-1.4,0.6-1.4,1.4v19.5c0,0.8,0.6,1.4,1.4,1.4
	H279.8z M273,479.3c-0.5,0-0.9-0.4-0.9-0.9c0-0.5,0.4-0.9,0.9-0.9s0.9,0.4,0.9,0.9C273.9,478.9,273.5,479.3,273,479.3z M275.7,479.3
	c-0.5,0-0.9-0.4-0.9-0.9c0-0.5,0.4-0.9,0.9-0.9s0.9,0.4,0.9,0.9C276.6,478.9,276.2,479.3,275.7,479.3z M278.4,479.3
	c-0.5,0-0.9-0.4-0.9-0.9c0-0.5,0.4-0.9,0.9-0.9s0.9,0.4,0.9,0.9C279.3,478.9,278.9,479.3,278.4,479.3z"/>
<path d="M57.6,487.6h-1.8c-0.4,0-0.8-0.3-0.8-0.8v-1.8c0-0.5-0.4-1-1-1s-1,0.4-1,1v1.8c0,0.4-0.3,0.8-0.8,0.8h-1.8c-0.5,0-1,0.4-1,1
	s0.4,1,1,1h1.8c0.4,0,0.8,0.3,0.8,0.8v1.8c0,0.5,0.4,1,1,1s1-0.4,1-1v-1.8c0-0.4,0.3-0.8,0.8-0.8h1.8c0.5,0,1-0.4,1-1
	S58.2,487.6,57.6,487.6z"/>
<path d="M129.8,488.6c0,0.5-0.4,1-1,1h-5.7c-0.5,0-1-0.4-1-1s0.4-1,1-1h5.7C129.4,487.6,129.8,488.1,129.8,488.6z"/>
<path d="M202.4,486.8c0.4-0.4,0.4-1.1,0-1.6c-0.4-0.4-1.1-0.4-1.6,0l-3.6,3.6l-1.3-1.3c-0.4-0.4-1.1-0.4-1.6,0
	c-0.4,0.4-0.4,1.1,0,1.6l2.3,2.3c0.3,0.3,0.8,0.3,1.1,0L202.4,486.8z"/>
<path d="M271.3,488.5c0,0,0-0.1,0-0.1l1.9-1.9c0.3-0.3,0.3-0.9,0-1.3c-0.3-0.3-0.9-0.3-1.3,0l-1.9,1.9c0,0-0.1,0-0.1,0l-1.9-1.9
	c-0.3-0.3-0.9-0.3-1.3,0c-0.3,0.3-0.3,0.9,0,1.3l1.9,1.9c0,0,0,0.1,0,0.1l-1.9,1.9c-0.3,0.3-0.3,0.9,0,1.3c0.3,0.3,0.9,0.3,1.3,0
	l1.9-1.9c0,0,0.1,0,0.1,0l1.9,1.9c0.3,0.3,0.9,0.3,1.3,0c0.3-0.3,0.3-0.9,0-1.3L271.3,488.5z"/>
<path d="M347.7,477.2v-1.8c0-0.5,0.6-0.8,1-0.4l6.1,5.5c0.5,0.5,0.5,1.3,0,1.8l-6.2,5.7c-0.4,0.3-1,0.1-1-0.4v-2.3
	c0-0.7-0.6-1.3-1.3-1.3c-4.9,0-7.4,1.4-8.8,2.6c-0.4,0.4-1.1-0.1-0.9-0.6c2-4.8,6-7.2,9.7-7.5C347.2,478.4,347.7,477.9,347.7,477.2z
	"/>
<path d="M410.1,477.2v-1.8c0-0.5-0.6-0.8-1-0.4l-6.1,5.5c-0.5,0.5-0.5,1.3,0,1.8l6.2,5.7c0.4,0.3,1,0.1,1-0.4v-2.3
	c0-0.7,0.6-1.3,1.3-1.3c4.9,0,7.4,1.4,8.8,2.6c0.4,0.4,1.1-0.1,0.9-0.6c-2-4.8-6-7.2-9.7-7.5C410.6,478.4,410.1,477.9,410.1,477.2z"
	/>
<g>
	<path d="M351.3,487.5l-0.7,0.6c-0.3,0.2-0.4,0.6-0.4,1v4.1c0,0.4-0.3,0.6-0.6,0.6h-14.6c-0.4,0-0.6-0.3-0.6-0.6v-12.3
		c0-0.4,0.3-0.6,0.6-0.6h3.5c0.4,0,0.9-0.1,1.2-0.4l0.9-0.7c0.2-0.2,0.5-0.6-0.2-0.6h-6.5c-0.7,0-1.2,0.6-1.2,1.2v14.4
		c0,0.7,0.6,1.2,1.2,1.2h16.8c0.7,0,1.2-0.6,1.2-1.2v-6.3C351.9,487.2,351.6,487.2,351.3,487.5z"/>
</g>
<g>
	<path d="M406.5,487.5l0.7,0.6c0.3,0.2,0.4,0.6,0.4,1v4.1c0,0.4,0.3,0.6,0.6,0.6h14.6c0.4,0,0.6-0.3,0.6-0.6l0-12.3
		c0-0.4-0.3-0.6-0.6-0.6h-3.5c-0.4,0-0.9-0.1-1.2-0.4l-0.9-0.7c-0.2-0.2-0.5-0.6,0.2-0.6h6.5c0.7,0,1.2,0.6,1.2,1.2l0,14.4
		c0,0.7-0.6,1.2-1.2,1.2h-16.8c-0.7,0-1.2-0.6-1.2-1.2v-6.3C405.9,487.2,406.2,487.2,406.5,487.5z"/>
</g>
<path d="M475.5,480.4v14.8c0,0.7,0.6,1.4,1.4,1.4h15.5c0.7,0,1.4-0.6,1.4-1.4v-14.8c0-0.7-0.6-1.3-1.4-1.3h-15.5
	C476.1,479.1,475.5,479.7,475.5,480.4z M491.2,494.8h-13.3c-0.4,0-0.6-0.3-0.6-0.7v-9.6c0-0.4,0.3-0.6,0.6-0.6h13.3
	c0.4,0,0.7,0.3,0.7,0.6v9.6C491.8,494.5,491.5,494.8,491.2,494.8z"/>
<path d="M495.8,493.1c0.5,0,0.9-0.4,0.9-0.9v-14.9c0-0.7-0.6-1.3-1.3-1.3h-15.5c-0.5,0-0.9,0.4-0.9,0.9s0.4,0.9,0.9,0.9h14.4
	c0.4,0,0.7,0.3,0.7,0.7v13.7C494.9,492.7,495.3,493.1,495.8,493.1z"/>
<path d="M554.1,486h-6.2c-0.8,0-1.5-0.7-1.5-1.5v-6.2c0-0.8,0.7-1.5,1.5-1.5h6.2c0.8,0,1.5,0.7,1.5,1.5v6.2
	C555.6,485.3,554.9,486,554.1,486z"/>
<path d="M567.8,480.4h-8.6c-0.8,0-1.5-0.7-1.5-1.5v-0.6c0-0.8,0.7-1.5,1.5-1.5h8.6c0.8,0,1.5,0.7,1.5,1.5v0.6
	C569.3,479.7,568.7,480.4,567.8,480.4z"/>
<path d="M567.8,485.9h-8.6c-0.8,0-1.5-0.7-1.5-1.5v-0.6c0-0.8,0.7-1.5,1.5-1.5h8.6c0.8,0,1.5,0.7,1.5,1.5v0.6
	C569.3,485.3,568.7,485.9,567.8,485.9z"/>
<path d="M554.1,497.7h-6.2c-0.8,0-1.5-0.7-1.5-1.5v-6.2c0-0.8,0.7-1.5,1.5-1.5h6.2c0.8,0,1.5,0.7,1.5,1.5v6.2
	C555.6,497,554.9,497.7,554.1,497.7z"/>
<path d="M567.8,492h-8.6c-0.8,0-1.5-0.7-1.5-1.5v-0.6c0-0.8,0.7-1.5,1.5-1.5h8.6c0.8,0,1.5,0.7,1.5,1.5v0.6
	C569.3,491.3,568.7,492,567.8,492z"/>
<path d="M567.8,497.6h-8.6c-0.8,0-1.5-0.7-1.5-1.5v-0.6c0-0.8,0.7-1.5,1.5-1.5h8.6c0.8,0,1.5,0.7,1.5,1.5v0.6
	C569.3,496.9,568.7,497.6,567.8,497.6z"/>
<path d="M51.8,558h-6.7c-0.9,0-1.6-0.7-1.6-1.6v-6.7c0-0.9,0.7-1.6,1.6-1.6h6.7c0.9,0,1.6,0.7,1.6,1.6v6.7
	C53.4,557.2,52.7,558,51.8,558z"/>
<path d="M63.9,558h-6.7c-0.9,0-1.6-0.7-1.6-1.6v-6.7c0-0.9,0.7-1.6,1.6-1.6h6.7c0.9,0,1.6,0.7,1.6,1.6v6.7
	C65.5,557.2,64.8,558,63.9,558z"/>
<path d="M51.8,570.1h-6.7c-0.9,0-1.6-0.7-1.6-1.6v-6.7c0-0.9,0.7-1.6,1.6-1.6h6.7c0.9,0,1.6,0.7,1.6,1.6v6.7
	C53.4,569.4,52.7,570.1,51.8,570.1z"/>
<path d="M63.9,570.1h-6.7c-0.9,0-1.6-0.7-1.6-1.6v-6.7c0-0.9,0.7-1.6,1.6-1.6h6.7c0.9,0,1.6,0.7,1.6,1.6v6.7
	C65.5,569.4,64.8,570.1,63.9,570.1z"/>
<path d="M120.2,554.1h-3.3c-0.8,0-1.5-0.7-1.5-1.5v-3.3c0-0.8,0.7-1.5,1.5-1.5h3.3c0.8,0,1.5,0.7,1.5,1.5v3.3
	C121.7,553.4,121,554.1,120.2,554.1z"/>
<path d="M128.2,554.1h-3.3c-0.8,0-1.5-0.7-1.5-1.5v-3.3c0-0.8,0.7-1.5,1.5-1.5h3.3c0.8,0,1.5,0.7,1.5,1.5v3.3
	C129.7,553.4,129,554.1,128.2,554.1z"/>
<path d="M136.2,554.1h-3.3c-0.8,0-1.5-0.7-1.5-1.5v-3.3c0-0.8,0.7-1.5,1.5-1.5h3.3c0.8,0,1.5,0.7,1.5,1.5v3.3
	C137.7,553.4,137,554.1,136.2,554.1z"/>
<path d="M120.2,562.1h-3.3c-0.8,0-1.5-0.7-1.5-1.5v-3.3c0-0.8,0.7-1.5,1.5-1.5h3.3c0.8,0,1.5,0.7,1.5,1.5v3.3
	C121.7,561.4,121,562.1,120.2,562.1z"/>
<path d="M128.2,562.1h-3.3c-0.8,0-1.5-0.7-1.5-1.5v-3.3c0-0.8,0.7-1.5,1.5-1.5h3.3c0.8,0,1.5,0.7,1.5,1.5v3.3
	C129.7,561.4,129,562.1,128.2,562.1z"/>
<path d="M136.2,562.1h-3.3c-0.8,0-1.5-0.7-1.5-1.5v-3.3c0-0.8,0.7-1.5,1.5-1.5h3.3c0.8,0,1.5,0.7,1.5,1.5v3.3
	C137.7,561.4,137,562.1,136.2,562.1z"/>
<path d="M120.2,570.1h-3.3c-0.8,0-1.5-0.7-1.5-1.5v-3.3c0-0.8,0.7-1.5,1.5-1.5h3.3c0.8,0,1.5,0.7,1.5,1.5v3.3
	C121.7,569.4,121,570.1,120.2,570.1z"/>
<path d="M128.2,570.1h-3.3c-0.8,0-1.5-0.7-1.5-1.5v-3.3c0-0.8,0.7-1.5,1.5-1.5h3.3c0.8,0,1.5,0.7,1.5,1.5v3.3
	C129.7,569.4,129,570.1,128.2,570.1z"/>
<path d="M136.2,570.1h-3.3c-0.8,0-1.5-0.7-1.5-1.5v-3.3c0-0.8,0.7-1.5,1.5-1.5h3.3c0.8,0,1.5,0.7,1.5,1.5v3.3
	C137.7,569.4,137,570.1,136.2,570.1z"/>
<path d="M192.2,554.3h-2.4c-0.8,0-1.5-0.7-1.5-1.5v-2.4c0-0.8,0.7-1.5,1.5-1.5h2.4c0.8,0,1.5,0.7,1.5,1.5v2.4
	C193.7,553.6,193,554.3,192.2,554.3z"/>
<path d="M206.8,554.3h-9.7c-0.8,0-1.5-0.7-1.5-1.5v-2.4c0-0.8,0.7-1.5,1.5-1.5h9.7c0.8,0,1.5,0.7,1.5,1.5v2.4
	C208.3,553.6,207.6,554.3,206.8,554.3z"/>
<path d="M269.5,554.3H262c-0.8,0-1.5-0.7-1.5-1.5v-2.4c0-0.8,0.7-1.5,1.5-1.5h7.5c0.8,0,1.5,0.7,1.5,1.5v2.4
	C271,553.6,270.3,554.3,269.5,554.3z"/>
<path d="M269.5,561.6H262c-0.8,0-1.5-0.7-1.5-1.5v-2.4c0-0.8,0.7-1.5,1.5-1.5h7.5c0.8,0,1.5,0.7,1.5,1.5v2.4
	C271,560.9,270.3,561.6,269.5,561.6z"/>
<path d="M269.5,568.9H262c-0.8,0-1.5-0.7-1.5-1.5V565c0-0.8,0.7-1.5,1.5-1.5h7.5c0.8,0,1.5,0.7,1.5,1.5v2.4
	C271,568.2,270.3,568.9,269.5,568.9z"/>
<path d="M192.2,561.6h-2.4c-0.8,0-1.5-0.7-1.5-1.5v-2.4c0-0.8,0.7-1.5,1.5-1.5h2.4c0.8,0,1.5,0.7,1.5,1.5v2.4
	C193.7,560.9,193,561.6,192.2,561.6z"/>
<path d="M206.8,561.6h-9.7c-0.8,0-1.5-0.7-1.5-1.5v-2.4c0-0.8,0.7-1.5,1.5-1.5h9.7c0.8,0,1.5,0.7,1.5,1.5v2.4
	C208.3,560.9,207.6,561.6,206.8,561.6z"/>
<path d="M192.2,568.9h-2.4c-0.8,0-1.5-0.7-1.5-1.5V565c0-0.8,0.7-1.5,1.5-1.5h2.4c0.8,0,1.5,0.7,1.5,1.5v2.4
	C193.7,568.3,193,568.9,192.2,568.9z"/>
<path d="M206.8,568.9h-9.7c-0.8,0-1.5-0.7-1.5-1.5V565c0-0.8,0.7-1.5,1.5-1.5h9.7c0.8,0,1.5,0.7,1.5,1.5v2.4
	C208.3,568.3,207.6,568.9,206.8,568.9z"/>
<path d="M279,568.9h-4.6c-0.8,0-1.5-0.7-1.5-1.5v-17c0-0.8,0.7-1.5,1.5-1.5h4.6c0.8,0,1.5,0.7,1.5,1.5v17
	C280.5,568.2,279.9,568.9,279,568.9z"/>
<path d="M351.3,554h-10.9c-0.7,0-1.3-0.6-1.3-1.3v-1.8c0-0.7,0.6-1.3,1.3-1.3h10.9c0.7,0,1.3,0.6,1.3,1.3v1.8
	C352.6,553.4,352,554,351.3,554z"/>
<circle cx="334.4" cy="551.8" r="2.2"/>
<path d="M351.3,561.1h-10.9c-0.7,0-1.3-0.6-1.3-1.3V558c0-0.7,0.6-1.3,1.3-1.3h10.9c0.7,0,1.3,0.6,1.3,1.3v1.8
	C352.6,560.5,352,561.1,351.3,561.1z"/>
<circle cx="334.4" cy="558.9" r="2.2"/>
<path d="M351.3,568.3h-10.9c-0.7,0-1.3-0.6-1.3-1.3v-1.8c0-0.7,0.6-1.3,1.3-1.3h10.9c0.7,0,1.3,0.6,1.3,1.3v1.8
	C352.6,567.7,352,568.3,351.3,568.3z"/>
<circle cx="334.4" cy="566.1" r="2.2"/>
<path d="M422.8,554h-17.3c-0.7,0-1.3-0.6-1.3-1.3v-1.8c0-0.7,0.6-1.3,1.3-1.3h17.3c0.7,0,1.3,0.6,1.3,1.3v1.8
	C424.1,553.4,423.5,554,422.8,554z"/>
<path d="M422.8,561.1h-17.3c-0.7,0-1.3-0.6-1.3-1.3V558c0-0.7,0.6-1.3,1.3-1.3h17.3c0.7,0,1.3,0.6,1.3,1.3v1.8
	C424.1,560.5,423.5,561.1,422.8,561.1z"/>
<path d="M422.8,568.3h-17.3c-0.7,0-1.3-0.6-1.3-1.3v-1.8c0-0.7,0.6-1.3,1.3-1.3h17.3c0.7,0,1.3,0.6,1.3,1.3v1.8
	C424.1,567.7,423.5,568.3,422.8,568.3z"/>
<path d="M493.3,554h-10.9c-0.7,0-1.3-0.6-1.3-1.3v-1.8c0-0.7,0.6-1.3,1.3-1.3h10.9c0.7,0,1.3,0.6,1.3,1.3v1.8
	C494.6,553.4,494,554,493.3,554z"/>
<path d="M493.3,561.1h-10.9c-0.7,0-1.3-0.6-1.3-1.3V558c0-0.7,0.6-1.3,1.3-1.3h10.9c0.7,0,1.3,0.6,1.3,1.3v1.8
	C494.6,560.5,494,561.1,493.3,561.1z"/>
<path d="M493.3,568.3h-10.9c-0.7,0-1.3-0.6-1.3-1.3v-1.8c0-0.7,0.6-1.3,1.3-1.3h10.9c0.7,0,1.3,0.6,1.3,1.3v1.8
	C494.6,567.7,494,568.3,493.3,568.3z"/>
<path d="M478.3,561.1v-4.6c0-0.5-0.6-0.8-1-0.5l-2.8,2.3c-0.3,0.2-0.3,0.7,0,0.9l2.8,2.3C477.7,561.9,478.3,561.6,478.3,561.1z"/>
<path d="M565.5,554h-10.9c-0.7,0-1.3-0.6-1.3-1.3v-1.8c0-0.7,0.6-1.3,1.3-1.3h10.9c0.7,0,1.3,0.6,1.3,1.3v1.8
	C566.8,553.4,566.2,554,565.5,554z"/>
<path d="M565.5,561.1h-10.9c-0.7,0-1.3-0.6-1.3-1.3V558c0-0.7,0.6-1.3,1.3-1.3h10.9c0.7,0,1.3,0.6,1.3,1.3v1.8
	C566.8,560.5,566.2,561.1,565.5,561.1z"/>
<path d="M565.5,568.3h-10.9c-0.7,0-1.3-0.6-1.3-1.3v-1.8c0-0.7,0.6-1.3,1.3-1.3h10.9c0.7,0,1.3,0.6,1.3,1.3v1.8
	C566.8,567.7,566.2,568.3,565.5,568.3z"/>
<path d="M547.1,556.5v4.6c0,0.5,0.6,0.8,1,0.5l2.8-2.3c0.3-0.2,0.3-0.7,0-0.9l-2.8-2.3C547.7,555.7,547.1,556,547.1,556.5z"/>
</svg>
