<?xml version="1.0" encoding="utf-8"?>
<!-- Generator: Adobe Illustrator 17.1.0, SVG Export Plug-In . SVG Version: 6.00 Build 0)  -->
<!DOCTYPE svg PUBLIC "-//W3C//DTD SVG 1.1 Basic//EN" "http://www.w3.org/Graphics/SVG/1.1/DTD/svg11-basic.dtd">
<svg version="1.1" baseProfile="basic" id="Arrow_1_"
	 xmlns="http://www.w3.org/2000/svg" xmlns:xlink="http://www.w3.org/1999/xlink" x="0px" y="0px" width="500px" height="500px"
	 viewBox="0 0 500 500" xml:space="preserve">
  <metadata>
    <?xpacket begin="﻿" id="W5M0MpCehiHzreSzNTczkc9d"?>
    <x:xmpmeta xmlns:x="adobe:ns:meta/" x:xmptk="Adobe XMP Core 5.6-c011 79.156380, 2014/06/19-23:40:37        ">
     <rdf:RDF xmlns:rdf="http://www.w3.org/1999/02/22-rdf-syntax-ns#">
      <rdf:Description rdf:about=""
        xmlns:xmpMM="http://ns.adobe.com/xap/1.0/mm/"
        xmlns:stEvt="http://ns.adobe.com/xap/1.0/sType/ResourceEvent#"
        xmlns:xmp="http://ns.adobe.com/xap/1.0/"
        xmlns:xmpRights="http://ns.adobe.com/xap/1.0/rights/"
        xmlns:dc="http://purl.org/dc/elements/1.1/"
       xmpMM:DocumentID="xmp.did:f2c92c04b2aac1218a60f78257b5b323"
       xmpMM:OriginalDocumentID="xmp.did:f2c92c04b2aac1218a60f78257b5b323"
       xmpMM:InstanceID="xmp.iid:f2c92c04b2aac1218a60f78257b5b323"
       xmp:ModifyDate="2015-04-10T15:47:23+02:00"
       xmp:MetadataDate="2015-04-10T15:47:23+02:00"
       xmpRights:Marked="True"
       xmpRights:WebStatement="http://www.adobe.com/legal/general-terms.html">
       <xmpMM:History>
        <rdf:Seq>
         <rdf:li
          stEvt:action="saved"
          stEvt:instanceID="xmp.iid:f2c92c04b2aac1218a60f78257b5b323"
          stEvt:when="2015-04-10T15:47:23+02:00"/>
        </rdf:Seq>
       </xmpMM:History>
       <xmpRights:UsageTerms>
        <rdf:Alt>
         <rdf:li xml:lang="x-default">This work is licensed under the Adobe General Terms of Use http://www.adobe.com/legal/general-terms.html.</rdf:li>
        </rdf:Alt>
       </xmpRights:UsageTerms>
       <dc:publisher>
        <rdf:Bag>
         <rdf:li>Adobe Systems Incorporated</rdf:li>
        </rdf:Bag>
       </dc:publisher>
      </rdf:Description>
     </rdf:RDF>
    </x:xmpmeta>
    <?xpacket end="r"?>
  </metadata>
<path fill="#231F20" d="M405.1,500c46.4,0,84.1-37.7,84.1-84.1s-37.7-84.1-84.1-84.1c-23.7,0-45.1,10-60.4,25.8l-167.8-89.7
	c1.3-5.8,2-11.7,2-17.9s-0.8-12.1-2-17.9l167.8-89.7c15.3,15.9,36.7,25.8,60.4,25.8c46.4,0,84.1-37.7,84.1-84.1S451.5,0,405.1,0
	C358.8,0,321,37.7,321,84.1c0,6.1,0.8,12.1,2,17.9l-167.8,89.7c-15.3-15.9-36.7-25.8-60.4-25.8c-46.4,0-84.1,37.7-84.1,84.1
	s37.7,84.1,84.1,84.1c23.7,0,45.1-9.9,60.4-25.8L323.1,398c-1.3,5.8-2,11.7-2,17.9C321,462.3,358.7,500,405.1,500z M405.1,45.9
	c21.1,0,38.2,17.1,38.2,38.2s-17.2,38.2-38.2,38.2c-21.1,0-38.2-17.2-38.2-38.2C366.9,63,384,45.9,405.1,45.9z M94.8,288.2
	c-21.1,0-38.2-17.2-38.2-38.2c0-21.1,17.2-38.2,38.2-38.2c21.1,0,38.2,17.2,38.2,38.2S115.9,288.2,94.8,288.2z M405.1,377.7
	c21.1,0,38.2,17.2,38.2,38.2s-17.2,38.2-38.2,38.2c-21.1,0-38.2-17.2-38.2-38.2S384,377.7,405.1,377.7z"/>
</svg>
